Land_normalized_Motion_pl13
version=1
nRows=14
nColumns=43
inDegrees=yes
endheader
time		pelvis_tilt		pelvis_list		pelvis_rotation		pelvis_tx		pelvis_ty		pelvis_tz		hip_flexion_r		hip_adduction_r		hip_rotation_r		knee_angle_r		ankle_angle_r		subtalar_angle_r		mtp_angle_r		hip_flexion_l		hip_adduction_l		hip_rotation_l		knee_angle_l		ankle_angle_l		subtalar_angle_l		mtp_angle_l		lumbar_extension		lumbar_bending		lumbar_rotation		neck_flexion		neck_lateral_bending		neck_rotation		arm_flex_r		arm_add_r		arm_rot_r		elbow_flex_r		pro_sup_r		wrist_flex_r		wrist_dev_r		hand_finger_flex_r		arm_flex_l		arm_add_l		arm_rot_l		elbow_flex_l		pro_sup_l		wrist_flex_l		wrist_dev_l		hand_finger_flex_l		
1.695833		1.168714		7.721794		87.571173		0.032975		0.658686		0.516648		65.642765		1.888024		-0.784015		-97.695913		19.708963		-9.447768		-2.412398		65.168058		-7.508240		0.996109		-98.965751		18.629008		8.770062		10.423827		-53.107207		-1.201166		6.531375		11.937378		0.112201		-6.199608		-14.498402		-17.472733		-24.170344		73.128712		107.732153		-2.501391		-23.138958		-9.646028		-15.608517		-17.145369		-11.138249		54.798720		124.034571		-39.890627		-14.848013		-11.474913		
1.698813		1.319151		8.053177		87.700112		0.032974		0.652331		0.515053		66.332203		1.973333		-0.797774		-99.189229		19.130399		-9.479198		-0.285662		65.894193		-7.399097		1.614493		-100.448094		18.347642		9.299968		11.966751		-54.180031		-1.080240		6.622358		12.929886		0.089872		-6.359625		-12.534409		-18.266803		-23.904056		74.024161		107.806945		-2.271947		-22.920978		-9.274332		-13.367259		-17.417388		-10.705806		55.324522		124.291715		-40.573936		-14.682756		-10.083150		
1.701793		1.434555		8.350629		87.838831		0.032975		0.646091		0.513565		67.034352		2.015131		-0.793894		-100.620271		18.620967		-9.443562		1.578500		66.618360		-7.236802		2.225215		-101.845271		18.084020		9.842137		13.338082		-55.184953		-0.984955		6.660320		13.796999		0.115003		-6.514626		-10.495843		-19.108293		-23.515663		74.839103		107.913842		-2.035627		-22.714463		-8.917956		-11.127711		-17.728206		-10.236812		55.839258		124.539354		-41.112035		-14.580641		-8.861044		
1.704773		1.479310		8.550679		88.100005		0.032809		0.639659		0.512110		67.852483		1.887695		-0.766974		-102.077765		18.381061		-9.101922		1.747764		67.468948		-6.923399		2.842222		-103.216534		17.877536		10.647699		13.541478		-56.057735		-0.847222		6.518009		14.643833		0.119501		-6.571461		-8.365205		-19.966891		-22.981349		75.541272		108.084593		-1.832286		-22.539381		-8.736251		-9.042314		-18.028087		-9.953332		56.519890		124.624906		-41.158879		-14.656600		-8.799060		
1.707753		1.525492		8.718208		88.269968		0.032783		0.633325		0.510669		68.665090		1.874212		-0.694144		-103.453427		18.237907		-8.894091		1.935566		68.302214		-6.675268		3.391038		-104.532616		17.756144		11.159103		13.759707		-56.837533		-0.773171		6.438022		15.296810		0.265135		-6.653218		-6.220575		-20.875175		-22.361137		76.191417		108.275664		-1.617628		-22.402753		-8.548896		-6.839170		-18.367961		-9.545824		56.997028		124.760031		-41.070731		-14.692486		-8.680666		
1.710732		1.682904		8.719911		88.636593		0.032515		0.626403		0.509149		69.672852		1.690113		-0.811297		-104.866955		18.051017		-8.547505		2.589481		69.447673		-6.293379		4.195565		-105.902937		17.516228		12.142805		14.488244		-57.366103		-0.445307		6.309841		15.830067		0.341241		-6.611585		-4.051050		-21.754760		-21.707452		76.818452		108.499580		-1.510780		-21.997885		-8.199038		-4.762867		-18.724618		-9.053646		57.562584		124.864288		-41.418263		-14.530705		-8.429171		
1.713712		1.619376		8.912625		88.763160		0.032515		0.620205		0.507680		70.483486		1.664422		-0.593984		-106.236156		17.759661		-8.311480		2.725150		70.218801		-6.047858		4.559070		-107.155636		17.260284		12.521542		14.656629		-58.107294		-0.475294		6.229226		16.423936		0.403460		-6.739064		-1.884571		-22.658879		-21.088202		77.359323		108.660474		-1.356717		-21.970634		-8.077415		-2.537602		-19.102197		-8.565513		58.032563		125.074580		-41.243254		-14.665655		-8.282495		
1.716692		1.510179		8.921493		88.993892		0.032309		0.613435		0.506111		71.535734		1.510108		-0.325805		-107.652660		17.222566		-7.867791		5.009237		71.257031		-5.691347		4.937598		-108.410220		16.610937		13.083417		17.208823		-58.568642		-0.436115		5.960705		16.814002		0.475778		-6.650226		0.367772		-23.604962		-20.106003		77.741268		108.554933		-1.889537		-21.788414		-7.613955		-0.388519		-19.538856		-7.839432		58.451159		125.142843		-42.252237		-14.401614		-6.935548		
1.719672		1.386508		9.048253		89.159723		0.032206		0.607082		0.504517		72.413752		1.412381		-0.049363		-109.014670		16.914430		-7.598378		6.098307		72.085367		-5.407907		5.217837		-109.615545		16.289410		13.538848		18.446828		-59.148671		-0.462020		5.791010		17.270968		0.567912		-6.708056		2.585117		-24.499272		-19.328643		78.156737		108.589893		-2.000002		-21.692864		-7.326609		1.832312		-19.963847		-7.189306		58.834929		125.341327		-42.471567		-14.462227		-6.193347		
1.722652		1.145406		9.189067		89.347247		0.032065		0.600770		0.502857		73.297133		1.267410		0.366892		-110.410028		16.665463		-7.100847		6.257959		72.879360		-5.103128		5.379788		-110.810462		16.027758		14.317096		18.651709		-59.686664		-0.533346		5.546194		17.566880		0.504341		-6.798610		4.825465		-25.349728		-18.601300		78.507302		108.673338		-1.897891		-21.548087		-7.274369		4.066557		-20.361289		-6.614377		59.169335		125.573602		-42.275178		-14.719934		-5.995857		
1.725631		0.927209		9.339021		89.416282		0.032095		0.594650		0.501210		74.111771		1.246254		0.784629		-111.717120		16.557845		-6.618171		6.518566		73.607854		-4.943041		5.462024		-111.959385		15.859919		14.838370		18.934463		-60.219538		-0.685806		5.355974		17.900505		0.528020		-6.806949		7.131396		-26.259594		-17.698469		78.772753		108.659431		-1.883258		-21.428370		-7.296258		6.343461		-20.784246		-5.926090		59.422467		125.754307		-42.121905		-14.889541		-5.782727		
1.728611		0.711896		9.505478		89.461784		0.032166		0.588716		0.499575		74.857944		1.242022		1.184830		-112.958452		16.497838		-6.178742		6.831521		74.283441		-4.838437		5.499291		-113.069997		15.705315		15.280275		19.254950		-60.757968		-0.853303		5.183214		18.236086		0.543082		-6.808345		9.474208		-27.189344		-16.710511		78.971267		108.573535		-1.899441		-21.345881		-7.345424		8.663335		-21.211761		-5.164662		59.630667		125.919845		-41.953042		-15.000087		-5.568418		
1.731591		0.512469		9.658314		89.504104		0.032261		0.582847		0.497958		75.569951		1.233065		1.540044		-114.142397		16.504614		-5.778718		7.182811		74.955540		-4.766111		5.517909		-114.152367		15.580875		15.668347		19.600275		-61.266637		-1.012052		5.029525		18.581926		0.558501		-6.798970		11.849542		-28.128653		-15.654445		79.106440		108.460796		-1.925965		-21.294011		-7.396239		11.002803		-21.646891		-4.343216		59.813251		126.094509		-41.767672		-15.052350		-5.377350		
1.734571		0.300525		9.739238		89.557936		0.032292		0.576950		0.496383		76.311044		1.173802		1.886102		-115.266716		16.610344		-5.305186		7.767595		75.676656		-4.694176		5.501828		-115.181795		15.483926		16.059469		20.163956		-61.678249		-1.159109		4.805413		18.904262		0.627015		-6.732760		14.343744		-29.040983		-14.386459		79.099989		108.185823		-2.141145		-21.298671		-7.512958		13.341687		-22.076890		-3.466080		59.921674		126.207466		-41.771033		-14.868292		-5.250614		
